#Comment line ignore any data following # character 
#Hierarchical Translation and Rotation (.htr) file 
[Header]	
#Header keywords are followed by a single value 
FileType HTR		#Single word string
DataType HTRS		#Translation followed by rotation and scale data
FileVersion 1		#integer
NumSegments 84		#integer
NumFrames 2		#integer
DataFrameRate 30		#integer, data frame rate in this file
EulerRotationOrder ZYX
CalibrationUnits mm
RotationUnits Degrees
GlobalAxisofGravity Y
BoneLengthAxis Y
ScaleFactor 1.00
[SegmentNames&Hierarchy]
#CHILD	PARENT
MASTER GLOBAL
root MASTER
chest root
L_mid_tent01 root
R_mid_tent01 root
spine01 root
Bip01_Neck chest
L_humerus chest
R_humerus chest
weapon_bone chest
Bip01_Head Bip01_Neck
eye_left_bone Bip01_Head
eye_right_bone Bip01_Head
L_forearm L_humerus
L_front_hand L_forearm
L_weapon_bone L_forearm
L_front_hand01_01 L_front_hand
L_front_hand02_01 L_front_hand
L_front_hand03_01 L_front_hand
L_front_hand01_02 L_front_hand01_01
L_front_hand02_02 L_front_hand02_01
L_front_hand03_02 L_front_hand03_01
R_forearm R_humerus
R_front_hand R_forearm
R_weapon_bone R_forearm
R_front_hand01_01 R_front_hand
R_front_hand02_01 R_front_hand
R_front_hand03_01 R_front_hand
R_front_hand01_02 R_front_hand01_01
R_front_hand02_02 R_front_hand02_01
R_front_hand03_02 R_front_hand03_01
null_rope01_connect L_mid_tent01
Rope1_Seg01 null_rope01_connect
Rope1_Seg02 Rope1_Seg01
Rope1_Seg03 Rope1_Seg02
Rope1_Seg04 Rope1_Seg03
Rope1_Seg05 Rope1_Seg04
Rope1_Seg06 Rope1_Seg05
Rope1_Seg07 Rope1_Seg06
Rope1_Seg09 Rope1_Seg07
L_mid_hand01 Rope1_Seg09
L_mid_hand02 Rope1_Seg09
L_mid_hand03 Rope1_Seg09
null_rope02_connect R_mid_tent01
Rope2_Seg01 null_rope02_connect
Rope2_Seg02 Rope2_Seg01
Rope2_Seg03 Rope2_Seg02
Rope2_Seg04 Rope2_Seg03
Rope2_Seg05 Rope2_Seg04
Rope2_Seg06 Rope2_Seg05
Rope2_Seg07 Rope2_Seg06
Rope2_Seg09 Rope2_Seg07
R_mid_hand01 Rope2_Seg09
R_mid_hand02 Rope2_Seg09
R_mid_hand03 Rope2_Seg09
spine02 spine01
spine03 spine02
pelvis spine03
null_rope03_connect pelvis
null_rope04_connect pelvis
Rope3_Seg01 null_rope03_connect
Rope3_Seg02 Rope3_Seg01
Rope3_Seg03 Rope3_Seg02
Rope3_Seg04 Rope3_Seg03
Rope3_Seg05 Rope3_Seg04
Rope3_Seg06 Rope3_Seg05
Rope3_Seg07 Rope3_Seg06
Rope3_Seg08 Rope3_Seg07
Rope3_Seg09 Rope3_Seg08
R_rear_hand01 Rope3_Seg09
R_rear_hand02 Rope3_Seg09
R_rear_hand03 Rope3_Seg09
Rope4_Seg01 null_rope04_connect
Rope4_Seg02 Rope4_Seg01
Rope4_Seg03 Rope4_Seg02
Rope4_Seg04 Rope4_Seg03
Rope4_Seg05 Rope4_Seg04
Rope4_Seg06 Rope4_Seg05
Rope4_Seg07 Rope4_Seg06
Rope4_Seg08 Rope4_Seg07
Rope4_Seg09 Rope4_Seg08
L_rear_hand01 Rope4_Seg09
L_rear_hand02 Rope4_Seg09
L_rear_hand03 Rope4_Seg09
[BasePosition]
#SegmentName Tx, Ty, Tz, Rx, Ry, Rz, BoneLength
MASTER 0.000000 0.000000 0.000000 -90.000000 0.000000 0.000000 10.000000 
root 0.000000 0.000000 0.000000 0.000000 0.000000 0.000000 10.000000 
chest 0.000000 0.000000 0.000000 0.000000 0.000000 0.000000 10.000000 
L_mid_tent01 0.000000 0.000000 0.000000 0.000000 0.000000 0.000000 10.000000 
R_mid_tent01 0.000000 0.000000 0.000000 0.000000 0.000000 0.000000 10.000000 
spine01 0.000000 0.000000 0.000000 0.000000 0.000000 0.000000 10.000000 
Bip01_Neck 0.000000 0.000000 0.000000 0.000000 0.000000 0.000000 10.000000 
L_humerus 0.000000 0.000000 0.000000 0.000000 0.000000 0.000000 10.000000 
R_humerus 0.000000 0.000000 0.000000 0.000000 0.000000 0.000000 10.000000 
weapon_bone 0.000000 0.000000 0.000000 0.000000 0.000000 0.000000 10.000000 
Bip01_Head 0.000000 0.000000 0.000000 0.000000 0.000000 0.000000 10.000000 
eye_left_bone 0.000000 0.000000 0.000000 0.000000 0.000000 0.000000 10.000000 
eye_right_bone 0.000000 0.000000 0.000000 0.000000 0.000000 0.000000 10.000000 
L_forearm 0.000000 0.000000 0.000000 0.000000 0.000000 0.000000 10.000000 
L_front_hand 0.000000 0.000000 0.000000 0.000000 0.000000 0.000000 10.000000 
L_weapon_bone 0.000000 0.000000 0.000000 0.000000 0.000000 0.000000 10.000000 
L_front_hand01_01 0.000000 0.000000 0.000000 0.000000 0.000000 0.000000 10.000000 
L_front_hand02_01 0.000000 0.000000 0.000000 0.000000 0.000000 0.000000 10.000000 
L_front_hand03_01 0.000000 0.000000 0.000000 0.000000 0.000000 0.000000 10.000000 
L_front_hand01_02 0.000000 0.000000 0.000000 0.000000 0.000000 0.000000 10.000000 
L_front_hand02_02 0.000000 0.000000 0.000000 0.000000 0.000000 0.000000 10.000000 
L_front_hand03_02 0.000000 0.000000 0.000000 0.000000 0.000000 0.000000 10.000000 
R_forearm 0.000000 0.000000 0.000000 0.000000 0.000000 0.000000 10.000000 
R_front_hand 0.000000 0.000000 0.000000 0.000000 0.000000 0.000000 10.000000 
R_weapon_bone 0.000000 0.000000 0.000000 0.000000 0.000000 0.000000 10.000000 
R_front_hand01_01 0.000000 0.000000 0.000000 0.000000 0.000000 0.000000 10.000000 
R_front_hand02_01 0.000000 0.000000 0.000000 0.000000 0.000000 0.000000 10.000000 
R_front_hand03_01 0.000000 0.000000 0.000000 0.000000 0.000000 0.000000 10.000000 
R_front_hand01_02 0.000000 0.000000 0.000000 0.000000 0.000000 0.000000 10.000000 
R_front_hand02_02 0.000000 0.000000 0.000000 0.000000 0.000000 0.000000 10.000000 
R_front_hand03_02 0.000000 0.000000 0.000000 0.000000 0.000000 0.000000 10.000000 
null_rope01_connect 0.000000 0.000000 0.000000 0.000000 0.000000 0.000000 10.000000 
Rope1_Seg01 0.000000 0.000000 0.000000 0.000000 0.000000 0.000000 10.000000 
Rope1_Seg02 0.000000 0.000000 0.000000 0.000000 0.000000 0.000000 10.000000 
Rope1_Seg03 0.000000 0.000000 0.000000 0.000000 0.000000 0.000000 10.000000 
Rope1_Seg04 0.000000 0.000000 0.000000 0.000000 0.000000 0.000000 10.000000 
Rope1_Seg05 0.000000 0.000000 0.000000 0.000000 0.000000 0.000000 10.000000 
Rope1_Seg06 0.000000 0.000000 0.000000 0.000000 0.000000 0.000000 10.000000 
Rope1_Seg07 0.000000 0.000000 0.000000 0.000000 0.000000 0.000000 10.000000 
Rope1_Seg09 0.000000 0.000000 0.000000 0.000000 0.000000 0.000000 10.000000 
L_mid_hand01 0.000000 0.000000 0.000000 0.000000 0.000000 0.000000 10.000000 
L_mid_hand02 0.000000 0.000000 0.000000 0.000000 0.000000 0.000000 10.000000 
L_mid_hand03 0.000000 0.000000 0.000000 0.000000 0.000000 0.000000 10.000000 
null_rope02_connect 0.000000 0.000000 0.000000 0.000000 0.000000 0.000000 10.000000 
Rope2_Seg01 0.000000 0.000000 0.000000 0.000000 0.000000 0.000000 10.000000 
Rope2_Seg02 0.000000 0.000000 0.000000 0.000000 0.000000 0.000000 10.000000 
Rope2_Seg03 0.000000 0.000000 0.000000 0.000000 0.000000 0.000000 10.000000 
Rope2_Seg04 0.000000 0.000000 0.000000 0.000000 0.000000 0.000000 10.000000 
Rope2_Seg05 0.000000 0.000000 0.000000 0.000000 0.000000 0.000000 10.000000 
Rope2_Seg06 0.000000 0.000000 0.000000 0.000000 0.000000 0.000000 10.000000 
Rope2_Seg07 0.000000 0.000000 0.000000 0.000000 0.000000 0.000000 10.000000 
Rope2_Seg09 0.000000 0.000000 0.000000 0.000000 0.000000 0.000000 10.000000 
R_mid_hand01 0.000000 0.000000 0.000000 0.000000 0.000000 0.000000 10.000000 
R_mid_hand02 0.000000 0.000000 0.000000 0.000000 0.000000 0.000000 10.000000 
R_mid_hand03 0.000000 0.000000 0.000000 0.000000 0.000000 0.000000 10.000000 
spine02 0.000000 0.000000 0.000000 0.000000 0.000000 0.000000 10.000000 
spine03 0.000000 0.000000 0.000000 0.000000 0.000000 0.000000 10.000000 
pelvis 0.000000 0.000000 0.000000 0.000000 0.000000 0.000000 10.000000 
null_rope03_connect 0.000000 0.000000 0.000000 0.000000 0.000000 0.000000 10.000000 
null_rope04_connect 0.000000 0.000000 0.000000 0.000000 0.000000 0.000000 10.000000 
Rope3_Seg01 0.000000 0.000000 0.000000 0.000000 0.000000 0.000000 10.000000 
Rope3_Seg02 0.000000 0.000000 0.000000 0.000000 0.000000 0.000000 10.000000 
Rope3_Seg03 0.000000 0.000000 0.000000 0.000000 0.000000 0.000000 10.000000 
Rope3_Seg04 0.000000 0.000000 0.000000 0.000000 0.000000 0.000000 10.000000 
Rope3_Seg05 0.000000 0.000000 0.000000 0.000000 0.000000 0.000000 10.000000 
Rope3_Seg06 0.000000 0.000000 0.000000 0.000000 0.000000 0.000000 10.000000 
Rope3_Seg07 0.000000 0.000000 0.000000 0.000000 0.000000 0.000000 10.000000 
Rope3_Seg08 0.000000 0.000000 0.000000 0.000000 0.000000 0.000000 10.000000 
Rope3_Seg09 0.000000 0.000000 0.000000 0.000000 0.000000 0.000000 10.000000 
R_rear_hand01 0.000000 0.000000 0.000000 0.000000 0.000000 0.000000 10.000000 
R_rear_hand02 0.000000 0.000000 0.000000 0.000000 0.000000 0.000000 10.000000 
R_rear_hand03 0.000000 0.000000 0.000000 0.000000 0.000000 0.000000 10.000000 
Rope4_Seg01 0.000000 0.000000 0.000000 0.000000 0.000000 0.000000 10.000000 
Rope4_Seg02 0.000000 0.000000 0.000000 0.000000 0.000000 0.000000 10.000000 
Rope4_Seg03 0.000000 0.000000 0.000000 0.000000 0.000000 0.000000 10.000000 
Rope4_Seg04 0.000000 0.000000 0.000000 0.000000 0.000000 0.000000 10.000000 
Rope4_Seg05 0.000000 0.000000 0.000000 0.000000 0.000000 0.000000 10.000000 
Rope4_Seg06 0.000000 0.000000 0.000000 0.000000 0.000000 0.000000 10.000000 
Rope4_Seg07 0.000000 0.000000 0.000000 0.000000 0.000000 0.000000 10.000000 
Rope4_Seg08 0.000000 0.000000 0.000000 0.000000 0.000000 0.000000 10.000000 
Rope4_Seg09 0.000000 0.000000 0.000000 0.000000 0.000000 0.000000 10.000000 
L_rear_hand01 0.000000 0.000000 0.000000 0.000000 0.000000 0.000000 10.000000 
L_rear_hand02 0.000000 0.000000 0.000000 0.000000 0.000000 0.000000 10.000000 
L_rear_hand03 0.000000 0.000000 0.000000 0.000000 0.000000 0.000000 10.000000 
#Beginning of Data. Separated by tabs
#Fr	Tx	Ty	Tz	Rx	Ry	Rz	SF
[MASTER]
37 0.000000 0.000000 0.000000 0.001660 0.001660 0.001660 0.000000
38 0.000000 0.000000 0.000000 0.001660 0.001660 0.001660 0.000000
[root]
37 -39.969963 -28.457283 1535.013184 -89.238190 -27.962255 -88.509125 1535.797119
38 -34.351429 -36.684772 1569.329956 -89.809151 -27.847193 -88.900566 1570.134521
[chest]
37 -84.512650 -34.090519 0.000000 -0.356208 -0.144544 -160.472702 91.129311
38 -84.512650 -34.090519 0.000000 -0.556531 -0.052104 -162.704880 91.129311
[L_mid_tent01]
37 27.299648 22.177437 -249.918015 4.855094 37.316521 82.604652 252.380905
38 27.299643 22.177446 -249.918015 5.640896 38.136032 83.596443 252.380905
[R_mid_tent01]
37 23.228794 24.509907 226.238495 158.761551 -48.113922 89.696342 228.744751
38 23.228794 24.509907 226.238495 157.435944 -48.891224 91.111015 228.744751
[spine01]
37 -0.361383 -0.195265 0.000000 0.001900 0.001378 18.107416 0.410763
38 -0.361383 -0.195265 0.000000 0.001898 0.001381 17.928642 0.410763
[Bip01_Neck]
37 165.484543 71.581718 0.000119 175.896118 1.177290 24.871183 180.302734
38 165.484543 71.581718 0.000119 175.896118 1.177290 24.871183 180.302734
[L_humerus]
37 -13.983130 -135.272980 -120.471481 -178.705566 4.643970 -123.331993 181.680161
38 -13.983130 -135.272980 -120.471481 -177.524506 3.787637 -123.168541 181.680161
[R_humerus]
37 -13.983309 -135.273102 125.287651 -179.639572 -1.607667 -121.842201 184.909012
38 -13.983309 -135.273102 125.287651 -179.639572 -1.607667 -121.842201 184.909012
[weapon_bone]
37 235.964890 -300.705902 0.000000 0.000000 -89.951546 -128.212341 382.234833
38 235.964890 -300.705902 0.000000 0.000000 -89.951546 -128.212341 382.234833
[Bip01_Head]
37 102.819756 23.735643 5.410214 3.150732 3.423701 -20.839092 105.662453
38 102.819748 23.735649 5.410209 3.150732 3.423701 -20.839092 105.662445
[eye_left_bone]
37 -24.626970 125.451866 -64.772606 0.000000 -90.000000 -99.840431 143.318359
38 -24.626970 125.451866 -64.772606 0.000000 -90.000000 -99.840431 143.318359
[eye_right_bone]
37 -24.626970 125.451866 64.327362 0.000000 -89.960434 80.159386 143.117676
38 -24.626970 125.451866 64.327362 0.000000 -89.960434 80.159386 143.117676
[L_forearm]
37 322.776093 0.000000 -0.000119 0.000455 0.002303 -67.667175 322.776093
38 322.776093 0.000000 -0.000119 0.000486 0.002296 -66.096603 322.776093
[L_front_hand]
37 241.149185 -0.042021 -3.300071 -177.765518 0.382261 -91.186821 241.171753
38 241.149185 -0.042021 -3.300071 -178.120560 -1.273501 -47.335751 241.171753
[L_weapon_bone]
37 156.183838 0.000000 0.000000 0.001850 0.001445 14.018011 156.183838
38 156.183838 0.000000 0.000000 0.001832 0.001468 12.603914 156.183838
[L_front_hand01_01]
37 86.095154 20.947098 -0.655860 0.405585 -0.442306 -4.620490 88.609184
38 86.095154 20.947098 -0.655860 0.405585 -0.442306 -4.620490 88.609184
[L_front_hand02_01]
37 86.935165 -11.437475 24.513514 116.959450 3.630817 1.495453 91.046425
38 86.935165 -11.437475 24.513514 116.959450 3.630817 1.495453 91.046425
[L_front_hand03_01]
37 86.637497 -14.123976 -20.424902 -118.420097 -4.656303 -0.152527 90.126129
38 86.637497 -14.123976 -20.424902 -118.420097 -4.656303 -0.152527 90.126129
[L_front_hand01_02]
37 71.020905 -0.000179 0.000030 0.001534 0.001777 -8.378850 71.020905
38 71.020905 -0.000179 0.000030 0.001534 0.001777 -8.378848 71.020905
[L_front_hand02_02]
37 71.020927 -0.000119 0.000060 0.001534 0.001777 -8.378850 71.020927
38 71.020927 -0.000119 0.000060 0.001534 0.001777 -8.378848 71.020927
[L_front_hand03_02]
37 71.020905 -0.000060 0.000060 0.001534 0.001777 -8.378850 71.020905
38 71.020905 -0.000060 0.000060 0.001534 0.001777 -8.378848 71.020905
[R_forearm]
37 322.776428 -0.000060 0.000030 0.197178 -0.075533 -70.194351 322.776428
38 322.776428 -0.000060 0.000030 0.195105 -0.079778 -69.126511 322.776428
[R_front_hand]
37 238.847015 -0.006795 2.210259 -1.660013 -0.478421 -94.830536 238.857239
38 238.847015 -0.006795 2.210259 -1.466555 0.914081 -46.811184 238.857239
[R_weapon_bone]
37 155.664093 0.002503 -0.000030 0.003388 0.001439 -99.629684 155.664078
38 155.664093 0.002503 -0.000030 0.003399 0.001411 -98.694252 155.664078
[R_front_hand01_01]
37 87.624611 14.231146 22.918642 -116.960213 3.496675 -1.324139 91.683487
38 87.624611 14.231146 22.918642 -116.960213 3.496675 -1.324139 91.683487
[R_front_hand02_01]
37 89.356956 14.367283 -19.491137 118.419647 -4.257089 0.609827 92.579636
38 89.356956 14.367283 -19.491137 118.419647 -4.257089 0.609827 92.579636
[R_front_hand03_01]
37 87.286232 -22.307278 -0.143439 -0.387970 -0.231462 4.232001 90.091743
38 87.286232 -22.307278 -0.143439 -0.387970 -0.231462 4.232001 90.091743
[R_front_hand01_02]
37 71.020905 0.000060 0.000119 0.001777 0.001534 8.377220 71.020905
38 71.020905 0.000060 0.000119 0.001777 0.001534 8.377220 71.020905
[R_front_hand02_02]
37 71.020844 -0.000030 -0.000119 0.001777 0.001534 8.377220 71.020836
38 71.020844 -0.000030 -0.000119 0.001777 0.001534 8.377220 71.020836
[R_front_hand03_02]
37 71.020905 0.000000 0.000030 0.001777 0.001534 8.377220 71.020905
38 71.020905 0.000000 0.000030 0.001777 0.001534 8.377220 71.020905
[null_rope01_connect]
37 328.732483 0.000000 -0.000238 -137.890472 -54.159142 175.175537 328.732483
38 328.732483 0.000000 -0.000238 -137.632828 -52.442463 174.097916 328.732483
[Rope1_Seg01]
37 0.000000 0.000000 0.000000 107.783562 48.532333 130.224182 0.000000
38 0.000000 0.000000 0.000000 107.375977 49.685528 129.507492 0.000000
[Rope1_Seg02]
37 139.999863 -0.000179 0.000000 -0.208564 -7.766798 4.483255 139.999863
38 139.999863 -0.000179 0.000000 -0.094376 -6.813059 3.694014 139.999863
[Rope1_Seg03]
37 139.999924 0.000060 -0.000060 -1.382444 -11.996531 5.539934 139.999924
38 139.999924 0.000060 -0.000060 -0.997181 -10.733889 4.860687 139.999924
[Rope1_Seg04]
37 139.999924 -0.000060 -0.000119 -5.533013 -19.008272 10.412590 139.999924
38 139.999924 -0.000060 -0.000119 -5.062750 -19.022703 8.098227 139.999924
[Rope1_Seg05]
37 139.999832 0.000119 -0.000060 1.741437 -9.855012 15.463885 139.999832
38 139.999832 0.000119 -0.000060 1.100408 -11.654942 17.835590 139.999832
[Rope1_Seg06]
37 139.999954 0.000119 -0.000060 1.808215 -3.477506 5.768831 139.999954
38 139.999954 0.000119 -0.000060 2.664873 -3.566801 6.802528 139.999954
[Rope1_Seg07]
37 139.999985 0.000060 0.000000 0.938607 -1.997287 3.022882 139.999985
38 139.999985 0.000060 0.000000 1.283249 -2.030149 3.358065 139.999985
[Rope1_Seg09]
37 121.602913 0.000119 -0.000089 -89.793175 -1.359789 0.847147 121.602913
38 121.602913 0.000119 -0.000089 -89.793175 -1.359789 0.847147 121.602913
[L_mid_hand01]
37 103.859421 1.038730 8.195221 104.407784 -4.894928 -1.788119 104.187431
38 103.859421 1.038730 8.195221 105.103745 -17.963100 -5.291020 104.187431
[L_mid_hand02]
37 105.572853 -4.139662 -10.864139 -136.001480 7.671648 -7.277015 106.211075
38 105.572853 -4.139662 -10.864139 -138.167358 16.893818 -17.391130 106.211075
[L_mid_hand03]
37 104.641464 17.579376 -3.913581 -18.715746 1.412941 8.062574 106.179977
38 104.641464 17.579376 -3.913581 -17.918550 5.675312 20.907986 106.179977
[null_rope02_connect]
37 328.732849 0.000179 -0.000119 -123.804749 36.574249 18.601101 328.732849
38 328.732849 0.000179 -0.000119 -123.991211 36.308178 19.175438 328.732849
[Rope2_Seg01]
37 0.000076 0.000111 0.000153 -67.329376 57.417336 32.992229 0.000204
38 0.000076 0.000111 0.000153 -65.606674 59.172947 35.875454 0.000204
[Rope2_Seg02]
37 139.999741 -0.000060 -0.000119 0.799968 -8.406268 1.014048 139.999756
38 139.999741 -0.000060 -0.000119 0.832926 -7.455517 0.477717 139.999756
[Rope2_Seg03]
37 140.000107 0.000030 0.000000 0.459960 -11.796618 1.435834 140.000107
38 140.000107 0.000030 0.000000 0.617155 -10.953605 0.628138 140.000107
[Rope2_Seg04]
37 139.999802 0.000000 -0.000060 -1.447917 -22.415312 3.420158 139.999802
38 139.999802 0.000000 -0.000060 -0.880093 -20.384018 1.466457 139.999802
[Rope2_Seg05]
37 139.999985 -0.000060 0.000119 -3.925369 -21.465456 4.317537 139.999985
38 139.999985 -0.000060 0.000119 -4.029824 -23.469292 4.994611 139.999985
[Rope2_Seg06]
37 139.999893 -0.000030 -0.000119 -2.046743 -6.980731 0.924391 139.999893
38 139.999893 -0.000030 -0.000119 -2.027275 -7.517167 1.156040 139.999893
[Rope2_Seg07]
37 139.999893 0.000060 -0.000060 -1.399267 -3.645157 0.328256 139.999893
38 139.999893 0.000060 -0.000060 -1.411297 -3.817753 0.375321 139.999893
[Rope2_Seg09]
37 121.338966 0.000089 -0.000060 33.793236 -1.359788 -0.847141 121.338966
38 121.338966 0.000089 -0.000060 33.793236 -1.359788 -0.847141 121.338966
[R_mid_hand01]
37 104.680779 11.144459 -10.335981 -47.078369 6.799670 9.008916 105.778534
38 104.680779 11.144459 -10.335981 -45.231022 16.233332 18.229738 105.778534
[R_mid_hand02]
37 104.070427 2.443552 8.231699 75.516365 -7.311154 2.419848 104.424065
38 104.070427 2.443552 8.231699 74.704796 -19.933538 5.861593 104.424065
[R_mid_hand03]
37 106.028137 -11.221827 -5.996406 -164.661057 3.890166 -11.178973 106.788818
38 106.028137 -11.221827 -5.996406 -165.892441 7.220818 -23.862425 106.788818
[spine02]
37 129.756927 0.001550 0.000119 -0.882519 -3.972170 4.613295 129.756927
38 129.756927 0.001550 0.000119 -0.845186 -3.980979 4.074318 129.756927
[spine03]
37 78.818718 0.051609 -2.898907 -0.430690 4.425345 -14.725370 78.872025
38 78.805901 0.053838 -3.023898 -0.381127 4.420805 -14.109792 78.863914
[pelvis]
37 169.435242 0.051022 0.000000 -2.639384 -1.472211 4.125843 169.435257
38 169.435242 0.051022 0.000000 -2.455596 -1.392321 3.710067 169.435257
[null_rope03_connect]
37 -1.257226 -2.466202 137.391083 138.663498 -86.801506 -32.723980 137.418976
38 -1.257226 -2.466202 137.391083 151.899124 -86.973595 -45.562160 137.418976
[null_rope04_connect]
37 -1.259640 -2.480268 -137.844437 138.663498 -86.801506 -32.723980 137.872513
38 -1.259640 -2.480268 -137.844437 151.899124 -86.973595 -45.562160 137.872513
[Rope3_Seg01]
37 0.000065 0.000047 0.000000 -139.441574 -34.463219 -66.245438 0.000080
38 0.000065 0.000044 0.000000 -140.181671 -35.550533 -65.554108 0.000079
[Rope3_Seg02]
37 139.999924 -0.000119 0.000060 -10.211131 4.873759 -23.698359 139.999924
38 139.999924 -0.000119 0.000060 -12.523063 6.085654 -26.074854 139.999924
[Rope3_Seg03]
37 139.999924 -0.000119 0.000119 -63.628117 22.288406 -56.877895 139.999924
38 139.999924 -0.000119 0.000119 -61.134129 24.780600 -53.277332 139.999924
[Rope3_Seg04]
37 139.999924 0.000119 0.000000 -25.887613 31.762228 -14.186397 139.999924
38 139.999924 0.000119 0.000000 -21.224606 27.855997 -11.380780 139.999924
[Rope3_Seg05]
37 139.999924 -0.000238 0.000060 -12.284537 31.314672 -7.513107 139.999924
38 139.999924 -0.000238 0.000060 -14.470449 32.576885 -10.099229 139.999924
[Rope3_Seg06]
37 139.999893 -0.000119 -0.000060 -1.112881 12.300674 -0.048634 139.999893
38 139.999893 -0.000119 -0.000060 -1.780633 15.628350 -0.836852 139.999893
[Rope3_Seg07]
37 139.999771 0.000060 -0.000119 0.255981 5.537551 0.241803 139.999771
38 139.999771 0.000060 -0.000119 0.243957 6.483837 0.079873 139.999771
[Rope3_Seg08]
37 139.999985 -0.000060 0.000000 0.504277 2.959051 0.113631 139.999985
38 139.999985 -0.000060 0.000000 0.531894 3.394815 0.027316 139.999985
[Rope3_Seg09]
37 90.185997 -0.000179 -0.000060 89.793228 -1.359877 -0.847183 90.185997
38 90.185997 -0.000179 -0.000060 89.793228 -1.359877 -0.847183 90.185997
[R_rear_hand01]
37 103.366196 -6.073594 -10.757982 -156.187958 6.629542 -4.068727 104.101845
38 103.366196 -6.073594 -10.757982 -156.644577 8.164836 -7.602938 104.101845
[R_rear_hand02]
37 100.509819 12.039542 -7.992327 -38.661503 2.823030 6.539879 101.543350
38 100.509819 12.039542 -7.992327 -38.449661 5.205260 9.538470 101.543350
[R_rear_hand03]
37 101.539970 5.215704 5.435467 84.298233 -3.738707 4.235782 101.819031
38 101.539970 5.215704 5.435467 84.261757 -7.547008 4.621110 101.819031
[Rope4_Seg01]
37 0.000000 -0.000056 -0.000047 46.683647 -16.726561 -100.054527 0.000073
38 0.000000 -0.000059 -0.000044 46.712185 -17.445129 -100.054985 0.000074
[Rope4_Seg02]
37 139.999985 0.000060 0.000119 9.976073 -51.082645 12.558805 139.999985
38 139.999985 0.000060 0.000119 9.836825 -51.406891 13.912048 139.999985
[Rope4_Seg03]
37 139.999924 0.000000 -0.000238 44.444366 -44.899895 32.439869 139.999924
38 139.999924 0.000000 -0.000238 42.684334 -43.918640 33.829647 139.999924
[Rope4_Seg04]
37 139.999985 0.000000 0.000119 16.295866 -3.600429 19.111034 139.999985
38 139.999985 0.000000 0.000119 13.774664 -3.020679 16.249489 139.999985
[Rope4_Seg05]
37 139.999802 -0.000060 -0.000119 15.568809 1.463976 33.308697 139.999802
38 139.999802 -0.000060 -0.000119 15.358659 -0.387930 30.383442 139.999802
[Rope4_Seg06]
37 139.999924 0.000000 0.000060 3.926911 6.177355 19.382856 139.999924
38 139.999924 0.000000 0.000060 5.796061 6.158444 24.424255 139.999924
[Rope4_Seg07]
37 139.999802 0.000000 0.000000 0.395483 3.048694 7.706375 139.999802
38 139.999802 0.000000 0.000000 0.514801 3.344584 9.224671 139.999802
[Rope4_Seg08]
37 139.999924 0.000000 0.000119 -1.600860 1.596556 3.982031 139.999924
38 139.999924 0.000000 0.000119 -1.645979 1.722213 4.667766 139.999924
[Rope4_Seg09]
37 90.185791 0.000060 0.000060 -135.617828 2.228885 0.850567 90.185791
38 90.185791 0.000060 0.000060 -135.617828 2.228885 0.850567 90.185791
[L_rear_hand01]
37 101.696655 -8.392275 -7.654577 -38.745930 0.206104 177.236099 102.329041
38 101.696655 -8.392275 -7.654577 -38.748684 0.017508 176.998215 102.329041
[L_rear_hand02]
37 102.726799 -1.568258 5.773216 84.312675 -1.079965 176.244354 102.900848
38 102.726799 -1.568258 5.773216 84.314774 -0.773047 176.215164 102.900848
[L_rear_hand03]
37 104.552910 9.721220 -10.420293 -155.750092 -4.658880 179.624634 105.519653
38 104.552910 9.721220 -10.420293 -155.775696 -4.785218 179.907394 105.519653
